<?xml version="1.0" encoding="utf-8"?>
<!-- Generator: Adobe Illustrator 19.0.0, SVG Export Plug-In . SVG Version: 6.00 Build 0)  -->
<svg version="1.1" xmlns="http://www.w3.org/2000/svg" xmlns:xlink="http://www.w3.org/1999/xlink" x="0px" y="0px"
	 viewBox="0 0 500 500" style="enable-background:new 0 0 500 500;" xml:space="preserve">
<style type="text/css">
	.st0{fill:#FFFFFF;}
	.st1{enable-background:new    ;}
	.st2{clip-path:url(#XMLID_2_);enable-background:new    ;}
	.st3{fill:#939393;}
	.st4{fill:#949494;}
	.st5{fill:#959595;}
	.st6{fill:#969696;}
	.st7{fill:#979797;}
	.st8{fill:#989898;}
	.st9{fill:#999999;}
	.st10{fill:#9A9A9A;}
	.st11{fill:#9B9B9B;}
	.st12{fill:#9C9C9C;}
	.st13{fill:#9D9D9D;}
	.st14{fill:#9E9E9E;}
	.st15{fill:#9F9F9F;}
	.st16{fill:#A0A0A0;}
	.st17{fill:#A1A1A1;}
	.st18{fill:#A2A2A2;}
	.st19{fill:#A3A3A3;}
	.st20{fill:#A4A4A4;}
	.st21{fill:#A5A5A5;}
	.st22{fill:#A6A6A6;}
	.st23{fill:#A7A7A7;}
	.st24{fill:#A8A8A8;}
	.st25{fill:#A9A9A9;}
	.st26{fill:#AAAAAA;}
	.st27{fill:#ABABAB;}
	.st28{fill:#ACACAC;}
	.st29{fill:#ADADAD;}
	.st30{fill:#AEAEAE;}
	.st31{fill:#AFAFAF;}
	.st32{fill:#B0B0B0;}
	.st33{fill:#B1B1B1;}
	.st34{fill:#B2B2B2;}
	.st35{fill:#B3B3B3;}
	.st36{fill:#B4B4B4;}
	.st37{fill:#929292;}
	.st38{fill:#919191;}
	.st39{fill:#909090;}
	.st40{fill:#8F8F8F;}
	.st41{fill:#8E8E8E;}
	.st42{fill:#8D8D8D;}
	.st43{fill:#8C8C8C;}
	.st44{fill:#8B8B8B;}
	.st45{fill:#8A8A8A;}
	.st46{fill:#898989;}
	.st47{fill:#888888;}
	.st48{fill:#878787;}
	.st49{fill:#868686;}
	.st50{fill:#858585;}
	.st51{fill:#848484;}
	.st52{fill:#838383;}
	.st53{fill:#828282;}
	.st54{fill:#818181;}
	.st55{fill:#808080;}
	.st56{fill:#DCDCDC;}
	.st57{clip-path:url(#XMLID_11_);enable-background:new    ;}
	.st58{fill:#4C4D4D;}
	.st59{fill:#4B4C4C;}
	.st60{fill:#4A4B4B;}
	.st61{clip-path:url(#XMLID_12_);enable-background:new    ;}
	.st62{fill:#454646;}
	.st63{fill:#464747;}
	.st64{fill:#474848;}
	.st65{fill:#484949;}
	.st66{fill:#494A4A;}
	.st67{fill:#444545;}
	.st68{fill:#4E4F4F;}
	.st69{fill:#575858;}
	.st70{fill:#173D6E;}
	.st71{fill:#24508A;}
	.st72{fill:#2B5FA1;}
	.st73{fill:#4D4B4A;}
	.st74{fill:#747170;}
	.st75{fill:#403F3E;}
	.st76{fill:#6182C0;}
	.st77{fill:#8A9ECE;}
	.st78{fill:#5078BB;}
	.st79{clip-path:url(#XMLID_14_);enable-background:new    ;}
	.st80{clip-path:url(#XMLID_19_);enable-background:new    ;}
	.st81{fill:#B8B8B8;}
	.st82{fill:#C5C5C5;}
	.st83{clip-path:url(#XMLID_20_);enable-background:new    ;}
	.st84{fill:#DFDFDF;}
</style>
<g id="Platform">
	<rect id="XMLID_6_" y="1" class="st0" width="500" height="500"/>
	<g id="XMLID_4_">
		<g id="XMLID_139_">
			<g id="XMLID_158_" class="st1">
				<g id="XMLID_430_" class="st1">
					<defs>
						<path id="XMLID_622_" class="st1" d="M399.4,290.3l-0.1,40.8c-0.1,21.5-14.2,43-42.4,59.4c-56.8,33-149.3,33-206.5,0
							c-28.8-16.6-43.2-38.4-43.1-60.2l0.1-40.8c-0.1,21.8,14.3,43.6,43.1,60.2c57.2,33,149.7,33,206.5,0
							C385.2,333.3,399.3,311.8,399.4,290.3z"/>
					</defs>
					<clipPath id="XMLID_2_">
						<use xlink:href="#XMLID_622_"  style="overflow:visible;"/>
					</clipPath>
					<g id="XMLID_431_" class="st2">
						<polyline id="XMLID_621_" class="st3" points="399.4,290.3 399.3,331.1 399.3,331.1 399.4,290.3 399.4,290.3 						"/>
						<path id="XMLID_620_" class="st4" d="M399.4,290.3l-0.1,40.8c0,0.2,0,0.5,0,0.7l0.1-40.8C399.4,290.8,399.4,290.6,399.4,290.3
							"/>
						<path id="XMLID_619_" class="st4" d="M399.4,291l-0.1,40.8c0,0.2,0,0.5,0,0.7l0.1-40.8C399.4,291.5,399.4,291.3,399.4,291"/>
						<path id="XMLID_618_" class="st4" d="M399.4,291.8l-0.1,40.8c0,0.2,0,0.5,0,0.7l0.1-40.8C399.4,292.3,399.4,292,399.4,291.8"
							/>
						<path id="XMLID_617_" class="st5" d="M399.3,292.5l-0.1,40.8c0,0.2,0,0.5,0,0.7l0.1-40.8C399.3,293,399.3,292.8,399.3,292.5"
							/>
						<path id="XMLID_616_" class="st5" d="M399.3,293.3l-0.1,40.8c0,0.2,0,0.5-0.1,0.7l0.1-40.8
							C399.3,293.8,399.3,293.5,399.3,293.3"/>
						<path id="XMLID_615_" class="st6" d="M399.3,294l-0.1,40.8c0,0.2,0,0.5-0.1,0.7l0.1-40.8C399.2,294.5,399.2,294.3,399.3,294"
							/>
						<path id="XMLID_614_" class="st6" d="M399.2,294.7l-0.1,40.8c0,0.2,0,0.5-0.1,0.7l0.1-40.8C399.1,295.2,399.2,295,399.2,294.7
							"/>
						<path id="XMLID_613_" class="st7" d="M399.1,295.5l-0.1,40.8c0,0.2-0.1,0.5-0.1,0.7l0.1-40.8
							C399.1,296,399.1,295.7,399.1,295.5"/>
						<path id="XMLID_612_" class="st7" d="M399,296.2l-0.1,40.8c0,0.2-0.1,0.5-0.1,0.7l0.1-40.8C399,296.7,399,296.5,399,296.2"/>
						<path id="XMLID_611_" class="st8" d="M398.9,297l-0.1,40.8c0,0.2-0.1,0.5-0.1,0.7l0.1-40.8C398.9,297.4,398.9,297.2,398.9,297
							"/>
						<path id="XMLID_610_" class="st8" d="M398.8,297.7l-0.1,40.8c0,0.2-0.1,0.5-0.1,0.7l0.1-40.8
							C398.8,298.2,398.8,297.9,398.8,297.7"/>
						<path id="XMLID_609_" class="st8" d="M398.7,298.4l-0.1,40.8c0,0.2-0.1,0.5-0.1,0.7l0.1-40.8
							C398.6,298.9,398.7,298.6,398.7,298.4"/>
						<path id="XMLID_608_" class="st9" d="M398.6,299.1l-0.1,40.8c0,0.2-0.1,0.5-0.1,0.7l0.1-40.8
							C398.5,299.6,398.5,299.4,398.6,299.1"/>
						<path id="XMLID_607_" class="st9" d="M398.4,299.8l-0.1,40.8c0,0.2-0.1,0.5-0.1,0.7l0.1-40.8
							C398.4,300.3,398.4,300.1,398.4,299.8"/>
						<path id="XMLID_606_" class="st10" d="M398.3,300.6l-0.1,40.8c-0.1,0.2-0.1,0.5-0.2,0.7l0.1-40.8
							C398.2,301.1,398.2,300.8,398.3,300.6"/>
						<path id="XMLID_605_" class="st10" d="M398.1,301.3l-0.1,40.8c-0.1,0.2-0.1,0.5-0.2,0.7L398,302
							C398,301.8,398.1,301.5,398.1,301.3"/>
						<path id="XMLID_604_" class="st11" d="M398,302l-0.1,40.8c-0.1,0.2-0.1,0.5-0.2,0.7l0.1-40.8C397.9,302.5,397.9,302.3,398,302
							"/>
						<path id="XMLID_603_" class="st11" d="M397.8,302.7l-0.1,40.8c-0.1,0.2-0.1,0.5-0.2,0.7l0.1-40.8
							C397.7,303.2,397.7,303,397.8,302.7"/>
						<path id="XMLID_602_" class="st12" d="M397.6,303.5l-0.1,40.8c-0.1,0.2-0.1,0.5-0.2,0.7l0.1-40.8
							C397.5,303.9,397.5,303.7,397.6,303.5"/>
						<path id="XMLID_601_" class="st12" d="M397.4,304.2l-0.1,40.8c-0.1,0.2-0.1,0.5-0.2,0.7l0.1-40.8
							C397.3,304.7,397.3,304.4,397.4,304.2"/>
						<path id="XMLID_600_" class="st13" d="M397.2,304.9l-0.1,40.8c-0.1,0.2-0.1,0.5-0.2,0.7l0.1-40.8
							C397,305.4,397.1,305.1,397.2,304.9"/>
						<path id="XMLID_599_" class="st13" d="M397,305.6l-0.1,40.8c-0.1,0.2-0.2,0.5-0.2,0.7l0.1-40.8
							C396.8,306.1,396.9,305.9,397,305.6"/>
						<path id="XMLID_598_" class="st13" d="M396.7,306.3l-0.1,40.8c-0.1,0.2-0.2,0.5-0.2,0.7l0.1-40.8
							C396.6,306.8,396.6,306.6,396.7,306.3"/>
						<path id="XMLID_597_" class="st14" d="M396.5,307l-0.1,40.8c-0.1,0.2-0.2,0.5-0.3,0.7l0.1-40.8
							C396.3,307.5,396.4,307.3,396.5,307"/>
						<path id="XMLID_596_" class="st14" d="M396.2,307.8l-0.1,40.8c-0.1,0.2-0.2,0.5-0.3,0.7l0.1-40.8
							C396,308.2,396.1,308,396.2,307.8"/>
						<path id="XMLID_595_" class="st15" d="M396,308.5l-0.1,40.8c-0.1,0.2-0.2,0.5-0.3,0.7l0.1-40.8
							C395.8,309,395.9,308.7,396,308.5"/>
						<path id="XMLID_594_" class="st15" d="M395.7,309.2l-0.1,40.8c-0.1,0.2-0.2,0.5-0.3,0.7l0.1-40.8
							C395.5,309.7,395.6,309.4,395.7,309.2"/>
						<path id="XMLID_593_" class="st16" d="M395.4,309.9l-0.1,40.8c-0.1,0.2-0.2,0.5-0.3,0.7l0.1-40.8
							C395.2,310.4,395.3,310.2,395.4,309.9"/>
						<path id="XMLID_592_" class="st16" d="M395.1,310.6l-0.1,40.8c-0.1,0.2-0.2,0.5-0.3,0.7l0.1-40.8
							C394.9,311.1,395,310.9,395.1,310.6"/>
						<path id="XMLID_591_" class="st17" d="M394.8,311.4l-0.1,40.8c-0.1,0.2-0.2,0.5-0.3,0.7l0.1-40.8
							C394.5,311.9,394.6,311.6,394.8,311.4"/>
						<path id="XMLID_590_" class="st17" d="M394.4,312.1l-0.1,40.8c-0.1,0.2-0.2,0.5-0.3,0.7l0.1-40.8
							C394.2,312.6,394.3,312.3,394.4,312.1"/>
						<path id="XMLID_589_" class="st17" d="M394.1,312.8l-0.1,40.8c-0.1,0.2-0.2,0.5-0.4,0.7l0.1-40.8
							C393.8,313.3,394,313.1,394.1,312.8"/>
						<path id="XMLID_588_" class="st18" d="M393.7,313.6l-0.1,40.8c-0.1,0.2-0.2,0.5-0.4,0.7l0.1-40.8
							C393.5,314,393.6,313.8,393.7,313.6"/>
						<path id="XMLID_587_" class="st18" d="M393.4,314.3l-0.1,40.8c-0.1,0.2-0.2,0.5-0.4,0.7L393,315
							C393.1,314.8,393.2,314.5,393.4,314.3"/>
						<path id="XMLID_586_" class="st19" d="M393,315l-0.1,40.8c-0.1,0.2-0.3,0.5-0.4,0.7l0.1-40.8C392.7,315.5,392.9,315.2,393,315
							"/>
						<path id="XMLID_585_" class="st19" d="M392.6,315.7l-0.1,40.8c-0.1,0.3-0.3,0.5-0.4,0.8l0.1-40.8
							C392.3,316.2,392.5,316,392.6,315.7"/>
						<path id="XMLID_584_" class="st20" d="M392.2,316.5l-0.1,40.8c-0.1,0.3-0.3,0.5-0.4,0.8l0.1-40.8
							C391.9,317,392,316.7,392.2,316.5"/>
						<path id="XMLID_583_" class="st20" d="M391.7,317.2l-0.1,40.8c-0.1,0.3-0.3,0.5-0.4,0.7l0.1-40.8
							C391.5,317.7,391.6,317.5,391.7,317.2"/>
						<path id="XMLID_582_" class="st21" d="M391.3,318l-0.1,40.8c-0.1,0.2-0.3,0.5-0.5,0.7l0.1-40.8
							C391,318.5,391.2,318.2,391.3,318"/>
						<path id="XMLID_581_" class="st21" d="M390.8,318.7l-0.1,40.8c-0.2,0.2-0.3,0.5-0.5,0.7l0.1-40.8
							C390.5,319.2,390.7,319,390.8,318.7"/>
						<path id="XMLID_580_" class="st21" d="M390.4,319.5l-0.1,40.8c-0.2,0.2-0.3,0.5-0.5,0.7l0.1-40.8
							C390.1,320,390.2,319.7,390.4,319.5"/>
						<path id="XMLID_579_" class="st22" d="M389.9,320.2l-0.1,40.8c-0.2,0.2-0.3,0.5-0.5,0.7l0.1-40.8
							C389.6,320.7,389.7,320.5,389.9,320.2"/>
						<path id="XMLID_578_" class="st22" d="M389.4,320.9l-0.1,40.8c-0.2,0.2-0.3,0.5-0.5,0.7l0.1-40.8
							C389.1,321.4,389.2,321.2,389.4,320.9"/>
						<path id="XMLID_577_" class="st23" d="M388.9,321.7l-0.1,40.8c-0.2,0.3-0.4,0.5-0.6,0.8l0.1-40.8
							C388.5,322.2,388.7,322,388.9,321.7"/>
						<path id="XMLID_576_" class="st23" d="M388.3,322.5l-0.1,40.8c-0.2,0.3-0.4,0.5-0.6,0.8l0.1-40.8
							C388,323,388.2,322.7,388.3,322.5"/>
						<path id="XMLID_575_" class="st24" d="M387.8,323.3l-0.1,40.8c-0.2,0.3-0.4,0.5-0.6,0.8l0.1-40.8
							C387.4,323.8,387.6,323.5,387.8,323.3"/>
						<path id="XMLID_574_" class="st24" d="M387.2,324.1l-0.1,40.8c-0.2,0.3-0.4,0.5-0.6,0.8l0.1-40.8
							C386.8,324.6,387,324.3,387.2,324.1"/>
						<path id="XMLID_573_" class="st25" d="M386.6,324.9l-0.1,40.8c-0.2,0.3-0.4,0.5-0.6,0.8l0.1-40.8
							C386.2,325.4,386.4,325.1,386.6,324.9"/>
						<path id="XMLID_572_" class="st25" d="M385.9,325.6l-0.1,40.8c-0.2,0.3-0.4,0.5-0.6,0.8l0.1-40.8
							C385.5,326.2,385.7,325.9,385.9,325.6"/>
						<path id="XMLID_571_" class="st25" d="M385.3,326.4l-0.1,40.8c-0.2,0.3-0.4,0.5-0.6,0.8l0.1-40.8
							C384.9,326.9,385.1,326.7,385.3,326.4"/>
						<path id="XMLID_570_" class="st26" d="M384.7,327.2l-0.1,40.8c-0.2,0.3-0.5,0.5-0.7,0.8L384,328
							C384.2,327.7,384.4,327.5,384.7,327.2"/>
						<path id="XMLID_569_" class="st26" d="M384,328l-0.1,40.8c-0.3,0.3-0.5,0.6-0.8,0.9l0.1-40.8C383.5,328.6,383.7,328.3,384,328
							"/>
						<path id="XMLID_568_" class="st27" d="M383.2,328.9l-0.1,40.8c-0.3,0.3-0.5,0.6-0.8,0.9l0.1-40.8
							C382.7,329.5,383,329.2,383.2,328.9"/>
						<path id="XMLID_567_" class="st27" d="M382.4,329.7l-0.1,40.8c-0.3,0.3-0.5,0.6-0.8,0.9l0.1-40.8
							C381.9,330.3,382.2,330,382.4,329.7"/>
						<path id="XMLID_566_" class="st28" d="M381.6,330.6l-0.1,40.8c-0.3,0.3-0.5,0.6-0.8,0.9l0.1-40.8
							C381.1,331.2,381.4,330.9,381.6,330.6"/>
						<path id="XMLID_565_" class="st28" d="M380.8,331.5l-0.1,40.8c-0.3,0.3-0.6,0.6-0.8,0.9l0.1-40.8
							C380.3,332,380.5,331.7,380.8,331.5"/>
						<path id="XMLID_564_" class="st29" d="M380,332.3l-0.1,40.8c-0.3,0.3-0.6,0.6-0.9,0.8l0.1-40.8
							C379.4,332.9,379.7,332.6,380,332.3"/>
						<path id="XMLID_563_" class="st29" d="M379.1,333.2l-0.1,40.8c-0.3,0.3-0.6,0.6-1,0.9l0.1-40.8
							C378.5,333.8,378.8,333.5,379.1,333.2"/>
						<path id="XMLID_562_" class="st29" d="M378.2,334.1l-0.1,40.8c-0.3,0.3-0.7,0.7-1.1,1l0.1-40.8
							C377.5,334.7,377.8,334.4,378.2,334.1"/>
						<path id="XMLID_561_" class="st30" d="M377.1,335.1l-0.1,40.8c-0.4,0.3-0.7,0.7-1.1,1l0.1-40.8
							C376.4,335.7,376.7,335.4,377.1,335.1"/>
						<path id="XMLID_560_" class="st30" d="M376,336.1l-0.1,40.8c-0.4,0.3-0.7,0.7-1.1,1l0.1-40.8
							C375.3,336.7,375.6,336.4,376,336.1"/>
						<path id="XMLID_559_" class="st31" d="M374.9,337l-0.1,40.8c-0.4,0.3-0.8,0.6-1.1,1l0.1-40.8
							C374.1,337.7,374.5,337.4,374.9,337"/>
						<path id="XMLID_558_" class="st31" d="M373.8,338l-0.1,40.8c-0.4,0.3-0.8,0.6-1.2,1l0.1-40.8C373,338.6,373.4,338.3,373.8,338
							"/>
						<path id="XMLID_557_" class="st32" d="M372.6,339l-0.1,40.8c-0.5,0.4-0.9,0.8-1.4,1.1l0.1-40.8
							C371.7,339.7,372.1,339.3,372.6,339"/>
						<path id="XMLID_556_" class="st32" d="M371.2,340.1l-0.1,40.8c-0.5,0.4-1,0.8-1.6,1.2l0.1-40.8
							C370.1,340.9,370.7,340.5,371.2,340.1"/>
						<path id="XMLID_555_" class="st33" d="M369.6,341.3l-0.1,40.8c-0.5,0.4-1.1,0.8-1.6,1.2l0.1-40.8
							C368.6,342.1,369.1,341.7,369.6,341.3"/>
						<path id="XMLID_554_" class="st33" d="M368,342.5l-0.1,40.8c-0.5,0.4-1.1,0.8-1.6,1.2l0.1-40.8
							C366.9,343.3,367.5,342.9,368,342.5"/>
						<path id="XMLID_553_" class="st33" d="M366.4,343.7l-0.1,40.8c-0.6,0.4-1.2,0.8-1.8,1.3l0.1-40.8
							C365.2,344.5,365.8,344.1,366.4,343.7"/>
						<path id="XMLID_552_" class="st34" d="M364.6,344.9l-0.1,40.8c-0.8,0.6-1.6,1.1-2.5,1.6l0.1-40.8
							C362.9,346,363.7,345.5,364.6,344.9"/>
						<path id="XMLID_551_" class="st34" d="M362.1,346.6l-0.1,40.8c-0.8,0.5-1.7,1.1-2.6,1.6l0.1-40.8
							C360.4,347.6,361.2,347.1,362.1,346.6"/>
						<path id="XMLID_550_" class="st35" d="M359.5,348.2l-0.1,40.8c-0.8,0.5-1.7,1-2.5,1.5c-0.1,0-0.2,0.1-0.2,0.1l0.1-40.8
							c0.1,0,0.2-0.1,0.2-0.1C357.8,349.2,358.7,348.7,359.5,348.2"/>
						<path id="XMLID_549_" class="st35" d="M356.7,349.8l-0.1,40.8c-1.7,1-3.4,1.9-5.2,2.8l0.1-40.8
							C353.3,351.7,355.1,350.8,356.7,349.8"/>
						<path id="XMLID_548_" class="st36" d="M351.6,352.7l-0.1,40.8c-5.8,3.1-12,5.8-18.5,8.2l0.1-40.8
							C339.6,358.5,345.7,355.7,351.6,352.7"/>
						<path id="XMLID_547_" class="st35" d="M333.1,360.9l-0.1,40.8c-1.8,0.7-3.7,1.4-5.6,2l0.1-40.8
							C329.4,362.2,331.3,361.6,333.1,360.9"/>
						<path id="XMLID_546_" class="st35" d="M327.6,362.9l-0.1,40.8c-1.2,0.4-2.4,0.8-3.6,1.2l0.1-40.8
							C325.2,363.7,326.4,363.3,327.6,362.9"/>
						<path id="XMLID_545_" class="st34" d="M323.9,364.1l-0.1,40.8c-1.2,0.4-2.4,0.8-3.7,1.1l0.1-40.8
							C321.5,364.8,322.7,364.5,323.9,364.1"/>
						<path id="XMLID_544_" class="st34" d="M320.3,365.2l-0.1,40.8c-1,0.3-1.9,0.6-2.9,0.8l0.1-40.8
							C318.4,365.8,319.3,365.5,320.3,365.2"/>
						<path id="XMLID_543_" class="st33" d="M317.4,366l-0.1,40.8c-0.8,0.2-1.7,0.5-2.5,0.7l0.1-40.8
							C315.7,366.5,316.6,366.3,317.4,366"/>
						<path id="XMLID_542_" class="st33" d="M314.9,366.7l-0.1,40.8c-0.8,0.2-1.7,0.4-2.5,0.7l0.1-40.8
							C313.2,367.2,314.1,366.9,314.9,366.7"/>
						<path id="XMLID_541_" class="st33" d="M312.4,367.4l-0.1,40.8c-0.8,0.2-1.7,0.4-2.6,0.6l0.1-40.8
							C310.7,367.8,311.5,367.6,312.4,367.4"/>
						<path id="XMLID_540_" class="st32" d="M309.8,368l-0.1,40.8c-0.7,0.2-1.5,0.4-2.2,0.5l0.1-40.8
							C308.3,368.4,309.1,368.2,309.8,368"/>
						<path id="XMLID_539_" class="st32" d="M307.6,368.5l-0.1,40.8c-0.7,0.2-1.3,0.3-2,0.4l0.1-40.8
							C306.2,368.8,306.9,368.7,307.6,368.5"/>
						<path id="XMLID_538_" class="st31" d="M305.6,369l-0.1,40.8c-0.7,0.1-1.3,0.3-2,0.4l0.1-40.8
							C304.2,369.3,304.9,369.1,305.6,369"/>
						<path id="XMLID_537_" class="st31" d="M303.6,369.4l-0.1,40.8c-0.7,0.1-1.3,0.3-2,0.4l0.1-40.8
							C302.2,369.7,302.9,369.6,303.6,369.4"/>
						<path id="XMLID_536_" class="st30" d="M301.5,369.8l-0.1,40.8c-0.7,0.1-1.4,0.3-2,0.4l0.1-40.8
							C300.2,370.1,300.9,370,301.5,369.8"/>
						<path id="XMLID_535_" class="st30" d="M299.5,370.2l-0.1,40.8c-0.6,0.1-1.3,0.2-1.9,0.4l0.1-40.8
							C298.2,370.5,298.9,370.3,299.5,370.2"/>
						<path id="XMLID_534_" class="st29" d="M297.6,370.6l-0.1,40.8c-0.6,0.1-1.1,0.2-1.7,0.3l0.1-40.8
							C296.4,370.8,297,370.7,297.6,370.6"/>
						<path id="XMLID_533_" class="st29" d="M295.9,370.9l-0.1,40.8c-0.6,0.1-1.1,0.2-1.7,0.3l0.1-40.8
							C294.7,371.1,295.3,371,295.9,370.9"/>
						<path id="XMLID_532_" class="st29" d="M294.2,371.2l-0.1,40.8c-0.6,0.1-1.1,0.2-1.7,0.3l0.1-40.8
							C293,371.4,293.6,371.3,294.2,371.2"/>
						<path id="XMLID_531_" class="st28" d="M292.4,371.5l-0.1,40.8c-0.6,0.1-1.1,0.2-1.7,0.3l0.1-40.8
							C291.3,371.6,291.9,371.5,292.4,371.5"/>
						<path id="XMLID_530_" class="st28" d="M290.7,371.7l-0.1,40.8c-0.6,0.1-1.2,0.2-1.7,0.3L289,372
							C289.6,371.9,290.1,371.8,290.7,371.7"/>
						<path id="XMLID_529_" class="st27" d="M289,372l-0.1,40.8c-0.6,0.1-1.2,0.2-1.7,0.2l0.1-40.8C287.8,372.1,288.4,372.1,289,372
							"/>
						<path id="XMLID_528_" class="st27" d="M287.3,372.2l-0.1,40.8c-0.5,0.1-1,0.1-1.5,0.2l0.1-40.8
							C286.2,372.4,286.7,372.3,287.3,372.2"/>
						<path id="XMLID_527_" class="st26" d="M285.7,372.4l-0.1,40.8c-0.5,0.1-1,0.1-1.5,0.2l0.1-40.8
							C284.7,372.5,285.2,372.5,285.7,372.4"/>
						<path id="XMLID_526_" class="st26" d="M284.2,372.6l-0.1,40.8c-0.5,0.1-1,0.1-1.5,0.2l0.1-40.8
							C283.2,372.7,283.7,372.7,284.2,372.6"/>
						<path id="XMLID_525_" class="st25" d="M282.7,372.8l-0.1,40.8c-0.5,0.1-1,0.1-1.5,0.2l0.1-40.8
							C281.6,372.9,282.2,372.9,282.7,372.8"/>
						<path id="XMLID_524_" class="st25" d="M281.1,373l-0.1,40.8c-0.5,0.1-1,0.1-1.5,0.2l0.1-40.8C280.1,373.1,280.6,373,281.1,373
							"/>
						<path id="XMLID_523_" class="st25" d="M279.6,373.1l-0.1,40.8c-0.5,0.1-1,0.1-1.5,0.2l0.1-40.8
							C278.6,373.2,279.1,373.2,279.6,373.1"/>
						<path id="XMLID_522_" class="st24" d="M278.1,373.3l-0.1,40.8c-0.5,0-1,0.1-1.5,0.1l0.1-40.8
							C277,373.4,277.5,373.3,278.1,373.3"/>
						<path id="XMLID_521_" class="st24" d="M276.5,373.4l-0.1,40.8c-0.5,0-1,0.1-1.4,0.1l0.1-40.8
							C275.6,373.5,276,373.5,276.5,373.4"/>
						<path id="XMLID_520_" class="st23" d="M275.1,373.6l-0.1,40.8c-0.5,0-0.9,0.1-1.4,0.1l0.1-40.8
							C274.1,373.6,274.6,373.6,275.1,373.6"/>
						<path id="XMLID_519_" class="st23" d="M273.7,373.7l-0.1,40.8c-0.5,0-0.9,0.1-1.4,0.1l0.1-40.8
							C272.7,373.7,273.2,373.7,273.7,373.7"/>
						<path id="XMLID_518_" class="st22" d="M272.3,373.8l-0.1,40.8c-0.5,0-0.9,0.1-1.4,0.1l0.1-40.8
							C271.3,373.8,271.8,373.8,272.3,373.8"/>
						<path id="XMLID_517_" class="st22" d="M270.8,373.9l-0.1,40.8c-0.5,0-0.9,0.1-1.4,0.1l0.1-40.8
							C269.9,373.9,270.4,373.9,270.8,373.9"/>
						<path id="XMLID_516_" class="st21" d="M269.4,374l-0.1,40.8c-0.5,0-0.9,0.1-1.4,0.1l0.1-40.8C268.5,374,269,374,269.4,374"/>
						<path id="XMLID_515_" class="st21" d="M268,374.1l-0.1,40.8c-0.5,0-0.9,0.1-1.4,0.1l0.1-40.8
							C267.1,374.1,267.5,374.1,268,374.1"/>
						<path id="XMLID_514_" class="st21" d="M266.6,374.1l-0.1,40.8c-0.5,0-0.9,0-1.4,0.1l0.1-40.8
							C265.7,374.2,266.1,374.2,266.6,374.1"/>
						<path id="XMLID_513_" class="st20" d="M265.2,374.2l-0.1,40.8c-0.4,0-0.9,0-1.3,0.1l0.1-40.8
							C264.3,374.2,264.7,374.2,265.2,374.2"/>
						<path id="XMLID_512_" class="st20" d="M263.8,374.3l-0.1,40.8c-0.4,0-0.9,0-1.3,0l0.1-40.8C263,374.3,263.4,374.3,263.8,374.3
							"/>
						<path id="XMLID_511_" class="st19" d="M262.5,374.3l-0.1,40.8c-0.4,0-0.9,0-1.3,0l0.1-40.8
							C261.6,374.3,262.1,374.3,262.5,374.3"/>
						<path id="XMLID_510_" class="st19" d="M261.2,374.3l-0.1,40.8c-0.4,0-0.9,0-1.3,0l0.1-40.8
							C260.3,374.4,260.7,374.4,261.2,374.3"/>
						<path id="XMLID_509_" class="st18" d="M259.9,374.4l-0.1,40.8c-0.4,0-0.9,0-1.3,0l0.1-40.8C259,374.4,259.4,374.4,259.9,374.4
							"/>
						<path id="XMLID_508_" class="st18" d="M258.5,374.4l-0.1,40.8c-0.4,0-0.9,0-1.3,0l0.1-40.8
							C257.6,374.4,258.1,374.4,258.5,374.4"/>
						<path id="XMLID_507_" class="st17" d="M257.2,374.4l-0.1,40.8c-0.4,0-0.9,0-1.3,0l0.1-40.8
							C256.3,374.4,256.8,374.4,257.2,374.4"/>
						<path id="XMLID_506_" class="st17" d="M255.9,374.4l-0.1,40.8c-0.4,0-0.9,0-1.3,0l0.1-40.8C255,374.4,255.4,374.4,255.9,374.4
							"/>
						<path id="XMLID_505_" class="st17" d="M254.5,374.4l-0.1,40.8c-0.4,0-0.9,0-1.3,0l0.1-40.8
							C253.7,374.4,254.1,374.4,254.5,374.4"/>
						<path id="XMLID_504_" class="st16" d="M253.2,374.4l-0.1,40.8c-0.4,0-0.9,0-1.3,0l0.1-40.8
							C252.4,374.4,252.8,374.4,253.2,374.4"/>
						<path id="XMLID_503_" class="st16" d="M251.9,374.4l-0.1,40.8c-0.4,0-0.9,0-1.3,0l0.1-40.8
							C251.1,374.4,251.5,374.4,251.9,374.4"/>
						<path id="XMLID_502_" class="st15" d="M250.7,374.4l-0.1,40.8c-0.4,0-0.9,0-1.3,0l0.1-40.8
							C249.8,374.4,250.2,374.4,250.7,374.4"/>
						<path id="XMLID_501_" class="st15" d="M249.4,374.4l-0.1,40.8c-0.4,0-0.9,0-1.3,0l0.1-40.8C248.5,374.4,249,374.4,249.4,374.4
							"/>
						<path id="XMLID_500_" class="st14" d="M248.1,374.4l-0.1,40.8c-0.4,0-0.9,0-1.3,0l0.1-40.8
							C247.3,374.4,247.7,374.4,248.1,374.4"/>
						<path id="XMLID_499_" class="st14" d="M246.8,374.3l-0.1,40.8c-0.4,0-0.9,0-1.3,0l0.1-40.8C246,374.3,246.4,374.3,246.8,374.3
							"/>
						<path id="XMLID_498_" class="st13" d="M245.6,374.3l-0.1,40.8c-0.4,0-0.9,0-1.3,0l0.1-40.8
							C244.7,374.3,245.1,374.3,245.6,374.3"/>
						<path id="XMLID_497_" class="st13" d="M244.3,374.3l-0.1,40.8c-0.4,0-0.9,0-1.3-0.1l0.1-40.8
							C243.4,374.2,243.9,374.2,244.3,374.3"/>
						<path id="XMLID_496_" class="st13" d="M243,374.2l-0.1,40.8c-0.4,0-0.8,0-1.3-0.1l0.1-40.8C242.2,374.2,242.6,374.2,243,374.2
							"/>
						<path id="XMLID_495_" class="st12" d="M241.7,374.2l-0.1,40.8c-0.4,0-0.8,0-1.3-0.1l0.1-40.8
							C240.9,374.1,241.3,374.1,241.7,374.2"/>
						<path id="XMLID_494_" class="st12" d="M240.5,374.1l-0.1,40.8c-0.4,0-0.8,0-1.3-0.1l0.1-40.8
							C239.7,374,240.1,374.1,240.5,374.1"/>
						<path id="XMLID_493_" class="st11" d="M239.2,374l-0.1,40.8c-0.4,0-0.8,0-1.2-0.1l0.1-40.8C238.4,374,238.8,374,239.2,374"/>
						<path id="XMLID_492_" class="st11" d="M238,373.9l-0.1,40.8c-0.4,0-0.8-0.1-1.2-0.1l0.1-40.8
							C237.2,373.9,237.6,373.9,238,373.9"/>
						<path id="XMLID_491_" class="st10" d="M236.7,373.9l-0.1,40.8c-0.4,0-0.8-0.1-1.2-0.1l0.1-40.8
							C235.9,373.8,236.3,373.8,236.7,373.9"/>
						<path id="XMLID_490_" class="st10" d="M235.5,373.8l-0.1,40.8c-0.4,0-0.8-0.1-1.2-0.1l0.1-40.8
							C234.7,373.7,235.1,373.7,235.5,373.8"/>
						<path id="XMLID_489_" class="st9" d="M234.2,373.7l-0.1,40.8c-0.4,0-0.8-0.1-1.2-0.1l0.1-40.8
							C233.4,373.6,233.8,373.7,234.2,373.7"/>
						<path id="XMLID_488_" class="st9" d="M233,373.6l-0.1,40.8c-0.4,0-0.8-0.1-1.2-0.1l0.1-40.8
							C232.2,373.5,232.6,373.6,233,373.6"/>
						<path id="XMLID_487_" class="st8" d="M231.8,373.5l-0.1,40.8c-0.4,0-0.8-0.1-1.2-0.1l0.1-40.8
							C230.9,373.4,231.3,373.4,231.8,373.5"/>
						<path id="XMLID_486_" class="st8" d="M230.5,373.4l-0.1,40.8c-0.4,0-0.8-0.1-1.2-0.1l0.1-40.8
							C229.7,373.3,230.1,373.3,230.5,373.4"/>
						<path id="XMLID_485_" class="st8" d="M229.3,373.2l-0.1,40.8c-0.4,0-0.8-0.1-1.2-0.1l0.1-40.8
							C228.4,373.2,228.9,373.2,229.3,373.2"/>
						<path id="XMLID_484_" class="st7" d="M228,373.1l-0.1,40.8c-0.4,0-0.8-0.1-1.2-0.1l0.1-40.8C227.2,373,227.6,373.1,228,373.1"
							/>
						<path id="XMLID_483_" class="st7" d="M226.8,373l-0.1,40.8c-0.4,0-0.8-0.1-1.2-0.1l0.1-40.8C226,372.9,226.4,372.9,226.8,373"
							/>
						<path id="XMLID_482_" class="st6" d="M225.5,372.9l-0.1,40.8c-0.4,0-0.8-0.1-1.2-0.1l0.1-40.8
							C224.7,372.8,225.1,372.8,225.5,372.9"/>
						<path id="XMLID_481_" class="st6" d="M224.3,372.7l-0.1,40.8c-0.4,0-0.8-0.1-1.2-0.2l0.1-40.8
							C223.5,372.6,223.9,372.7,224.3,372.7"/>
						<path id="XMLID_480_" class="st5" d="M223.1,372.6l-0.1,40.8c-0.4-0.1-0.8-0.1-1.2-0.2l0.1-40.8
							C222.2,372.5,222.7,372.5,223.1,372.6"/>
						<path id="XMLID_479_" class="st5" d="M221.8,372.4l-0.1,40.8c-0.4-0.1-0.8-0.1-1.2-0.2l0.1-40.8
							C221,372.3,221.4,372.3,221.8,372.4"/>
						<path id="XMLID_478_" class="st4" d="M220.6,372.2l-0.1,40.8c-0.4-0.1-0.8-0.1-1.3-0.2l0.1-40.8
							C219.8,372.1,220.2,372.2,220.6,372.2"/>
						<path id="XMLID_477_" class="st4" d="M219.3,372.1l-0.1,40.8c-0.4-0.1-0.8-0.1-1.3-0.2l0.1-40.8
							C218.5,371.9,218.9,372,219.3,372.1"/>
						<path id="XMLID_476_" class="st4" d="M218.1,371.9l-0.1,40.8c-0.4-0.1-0.8-0.1-1.3-0.2l0.1-40.8
							C217.2,371.8,217.7,371.8,218.1,371.9"/>
						<path id="XMLID_475_" class="st3" d="M216.8,371.7l-0.1,40.8c-0.4-0.1-0.8-0.1-1.3-0.2l0.1-40.8
							C216,371.6,216.4,371.6,216.8,371.7"/>
						<path id="XMLID_474_" class="st3" d="M215.6,371.5l-0.1,40.8c-0.4-0.1-0.8-0.1-1.3-0.2l0.1-40.8
							C214.7,371.4,215.2,371.4,215.6,371.5"/>
						<path id="XMLID_473_" class="st37" d="M214.3,371.3l-0.1,40.8c-0.4-0.1-0.8-0.1-1.2-0.2l0.1-40.8
							C213.5,371.2,213.9,371.2,214.3,371.3"/>
						<path id="XMLID_472_" class="st37" d="M213.1,371.1l-0.1,40.8c-0.4-0.1-0.8-0.1-1.2-0.2l0.1-40.8
							C212.2,371,212.7,371,213.1,371.1"/>
						<path id="XMLID_471_" class="st38" d="M211.8,370.9l-0.1,40.8c-0.4-0.1-0.8-0.1-1.2-0.2l0.1-40.8
							C211,370.7,211.4,370.8,211.8,370.9"/>
						<path id="XMLID_470_" class="st38" d="M210.6,370.7l-0.1,40.8c-0.4-0.1-0.8-0.2-1.3-0.2l0.1-40.8
							C209.7,370.5,210.2,370.6,210.6,370.7"/>
						<path id="XMLID_469_" class="st39" d="M209.3,370.4l-0.1,40.8c-0.4-0.1-0.9-0.2-1.3-0.2l0.1-40.8
							C208.5,370.3,208.9,370.4,209.3,370.4"/>
						<path id="XMLID_468_" class="st39" d="M208,370.2l-0.1,40.8c-0.4-0.1-0.9-0.2-1.3-0.3l0.1-40.8
							C207.2,370,207.6,370.1,208,370.2"/>
						<path id="XMLID_467_" class="st39" d="M206.7,369.9l-0.1,40.8c-0.4-0.1-0.9-0.2-1.3-0.3l0.1-40.8
							C205.9,369.8,206.3,369.9,206.7,369.9"/>
						<path id="XMLID_466_" class="st40" d="M205.4,369.7l-0.1,40.8c-0.4-0.1-0.9-0.2-1.3-0.3l0.1-40.8
							C204.6,369.5,205,369.6,205.4,369.7"/>
						<path id="XMLID_465_" class="st40" d="M204.1,369.4l-0.1,40.8c-0.4-0.1-0.9-0.2-1.3-0.3l0.1-40.8
							C203.3,369.2,203.7,369.3,204.1,369.4"/>
						<path id="XMLID_464_" class="st41" d="M202.8,369.1l-0.1,40.8c-0.4-0.1-0.9-0.2-1.3-0.3l0.1-40.8
							C202,369,202.4,369.1,202.8,369.1"/>
						<path id="XMLID_463_" class="st41" d="M201.6,368.9l-0.1,40.8c-0.4-0.1-0.9-0.2-1.3-0.3l0.1-40.8
							C200.7,368.7,201.1,368.8,201.6,368.9"/>
						<path id="XMLID_462_" class="st42" d="M200.3,368.6l-0.1,40.8c-0.4-0.1-0.9-0.2-1.3-0.3l0.1-40.8
							C199.4,368.4,199.9,368.5,200.3,368.6"/>
						<path id="XMLID_461_" class="st42" d="M199,368.3l-0.1,40.8c-0.5-0.1-0.9-0.2-1.4-0.3l0.1-40.8
							C198.1,368.1,198.5,368.2,199,368.3"/>
						<path id="XMLID_460_" class="st43" d="M197.6,368l-0.1,40.8c-0.5-0.1-0.9-0.2-1.4-0.3l0.1-40.8
							C196.7,367.7,197.2,367.8,197.6,368"/>
						<path id="XMLID_459_" class="st43" d="M196.3,367.6l-0.1,40.8c-0.5-0.1-0.9-0.2-1.4-0.3l0.1-40.8
							C195.4,367.4,195.8,367.5,196.3,367.6"/>
						<path id="XMLID_458_" class="st43" d="M194.9,367.3l-0.1,40.8c-0.5-0.1-0.9-0.2-1.4-0.4l0.1-40.8
							C194,367,194.4,367.2,194.9,367.3"/>
						<path id="XMLID_457_" class="st44" d="M193.5,366.9l-0.1,40.8c-0.5-0.1-0.9-0.2-1.4-0.4l0.1-40.8
							C192.6,366.7,193.1,366.8,193.5,366.9"/>
						<path id="XMLID_456_" class="st44" d="M192.2,366.6l-0.1,40.8c-0.5-0.1-0.9-0.2-1.4-0.4l0.1-40.8
							C191.3,366.3,191.7,366.4,192.2,366.6"/>
						<path id="XMLID_455_" class="st45" d="M190.8,366.2l-0.1,40.8c-0.5-0.1-0.9-0.3-1.3-0.4l0.1-40.8
							C189.9,365.9,190.4,366.1,190.8,366.2"/>
						<path id="XMLID_454_" class="st45" d="M189.5,365.8l-0.1,40.8c-0.5-0.1-0.9-0.3-1.4-0.4l0.1-40.8
							C188.5,365.6,189,365.7,189.5,365.8"/>
						<path id="XMLID_453_" class="st46" d="M188.1,365.4l-0.1,40.8c-0.5-0.1-1-0.3-1.5-0.4l0.1-40.8
							C187.1,365.1,187.6,365.3,188.1,365.4"/>
						<path id="XMLID_452_" class="st46" d="M186.6,365l-0.1,40.8c-0.5-0.1-1-0.3-1.5-0.5l0.1-40.8
							C185.6,364.7,186.1,364.8,186.6,365"/>
						<path id="XMLID_451_" class="st47" d="M185.1,364.5l-0.1,40.8c-0.5-0.2-1-0.3-1.5-0.5l0.1-40.8
							C184.1,364.2,184.6,364.4,185.1,364.5"/>
						<path id="XMLID_450_" class="st47" d="M183.6,364.1l-0.1,40.8c-0.5-0.2-1-0.3-1.5-0.5l0.1-40.8
							C182.6,363.7,183.1,363.9,183.6,364.1"/>
						<path id="XMLID_449_" class="st47" d="M182.1,363.6l-0.1,40.8c-0.5-0.2-1-0.3-1.5-0.5l0.1-40.8
							C181.1,363.3,181.6,363.4,182.1,363.6"/>
						<path id="XMLID_448_" class="st48" d="M180.6,363.1l-0.1,40.8c-0.5-0.2-1-0.3-1.5-0.5l0.1-40.8
							C179.7,362.8,180.2,362.9,180.6,363.1"/>
						<path id="XMLID_447_" class="st48" d="M179.2,362.6l-0.1,40.8c-0.5-0.2-1.1-0.4-1.6-0.5l0.1-40.8
							C178.1,362.2,178.6,362.4,179.2,362.6"/>
						<path id="XMLID_446_" class="st49" d="M177.6,362l-0.1,40.8c-0.6-0.2-1.1-0.4-1.7-0.6l0.1-40.8
							C176.5,361.6,177,361.8,177.6,362"/>
						<path id="XMLID_445_" class="st49" d="M175.9,361.4l-0.1,40.8c-0.6-0.2-1.1-0.4-1.7-0.6l0.1-40.8
							C174.8,361,175.3,361.2,175.9,361.4"/>
						<path id="XMLID_444_" class="st50" d="M174.2,360.8l-0.1,40.8c-0.6-0.2-1.1-0.4-1.7-0.6l0.1-40.8
							C173.1,360.4,173.6,360.6,174.2,360.8"/>
						<path id="XMLID_443_" class="st50" d="M172.5,360.2l-0.1,40.8c-0.6-0.2-1.1-0.4-1.7-0.7l0.1-40.8
							C171.4,359.7,171.9,359.9,172.5,360.2"/>
						<path id="XMLID_442_" class="st51" d="M170.8,359.5l-0.1,40.8c-0.6-0.2-1.1-0.4-1.7-0.7l0.1-40.8
							C169.7,359,170.3,359.3,170.8,359.5"/>
						<path id="XMLID_441_" class="st51" d="M169.2,358.8l-0.1,40.8c-0.7-0.3-1.3-0.5-2-0.8l0.1-40.8
							C167.9,358.3,168.5,358.5,169.2,358.8"/>
						<path id="XMLID_440_" class="st51" d="M167.2,358l-0.1,40.8c-0.7-0.3-1.4-0.6-2.1-0.9l0.1-40.8
							C165.8,357.4,166.5,357.7,167.2,358"/>
						<path id="XMLID_439_" class="st52" d="M165.1,357.1l-0.1,40.8c-0.7-0.3-1.4-0.6-2.1-0.9l0.1-40.8
							C163.8,356.5,164.5,356.8,165.1,357.1"/>
						<path id="XMLID_438_" class="st52" d="M163.1,356.2l-0.1,40.8c-0.7-0.3-1.4-0.6-2-0.9l0.1-40.8
							C161.7,355.5,162.4,355.9,163.1,356.2"/>
						<path id="XMLID_437_" class="st53" d="M161.1,355.2l-0.1,40.8c-0.7-0.3-1.4-0.7-2.1-1l0.1-40.8
							C159.6,354.5,160.3,354.9,161.1,355.2"/>
						<path id="XMLID_436_" class="st53" d="M158.9,354.2l-0.1,40.8c-1-0.5-1.9-1-2.8-1.4l0.1-40.8C157,353.2,158,353.7,158.9,354.2
							"/>
						<path id="XMLID_435_" class="st54" d="M156.1,352.8l-0.1,40.8c-0.9-0.5-1.9-1-2.8-1.5l0.1-40.8
							C154.2,351.8,155.2,352.3,156.1,352.8"/>
						<path id="XMLID_434_" class="st54" d="M153.3,351.3l-0.1,40.8c-0.9-0.5-1.8-1-2.7-1.5l0.1-40.8
							C151.5,350.2,152.4,350.8,153.3,351.3"/>
						<path id="XMLID_433_" class="st55" d="M150.6,349.7l-0.1,40.8c0,0-0.1,0-0.1,0c-1.6-0.9-3.2-1.9-4.8-2.9l0.1-40.8
							C147.2,347.8,148.8,348.7,150.6,349.7C150.5,349.7,150.5,349.7,150.6,349.7"/>
						<path id="XMLID_432_" class="st55" d="M145.7,346.8l-0.1,40.8c-25.6-16.2-38.4-36.8-38.3-57.3l0.1-40.8
							C107.3,310,120.1,330.6,145.7,346.8"/>
					</g>
				</g>
				<g id="XMLID_160_">
					<path id="XMLID_429_" class="st56" d="M356.3,230.1c57.2,33,57.5,86.6,0.7,119.6s-149.3,33-206.5,0s-57.5-86.6-0.7-119.6
						S299.1,197,356.3,230.1z"/>
				</g>
			</g>
		</g>
	</g>
	<g id="XMLID_3_">
		<g id="XMLID_135_">
			<g id="XMLID_142_" class="st1">
				<g id="XMLID_245_" class="st1">
					<defs>
						<path id="XMLID_250_" class="st1" d="M263.8,288.6l4.6,2.5c-1.8-1-4.8-1.7-8.3-1.9l-4.6-2.5C259.1,287,262,287.6,263.8,288.6z
							"/>
					</defs>
					<clipPath id="XMLID_11_">
						<use xlink:href="#XMLID_250_"  style="overflow:visible;"/>
					</clipPath>
					<g id="XMLID_246_" class="st57">
						<path id="XMLID_249_" class="st58" d="M260.1,289.2l-4.6-2.5c2.1,0.1,3.9,0.4,5.5,0.8l4.6,2.5
							C264,289.6,262.1,289.3,260.1,289.2"/>
						<path id="XMLID_248_" class="st59" d="M265.5,290l-4.6-2.5c1,0.3,1.8,0.6,2.5,0.9l4.6,2.5C267.4,290.6,266.5,290.3,265.5,290"
							/>
						<path id="XMLID_247_" class="st60" d="M268.1,290.9l-4.6-2.5c0.1,0.1,0.2,0.1,0.3,0.2l4.6,2.5
							C268.3,291,268.2,291,268.1,290.9"/>
					</g>
				</g>
				<g id="XMLID_234_" class="st1">
					<defs>
						<path id="XMLID_244_" class="st1" d="M228.2,303.6l-4.6-2.5c-1.4-0.8-2.2-1.7-2.2-2.9c0-2.7,4.2-5.7,10.5-7.9l4.6,2.5
							c-6.3,2.3-10.5,5.2-10.5,7.9C226,301.8,226.8,302.8,228.2,303.6z"/>
					</defs>
					<clipPath id="XMLID_12_">
						<use xlink:href="#XMLID_244_"  style="overflow:visible;"/>
					</clipPath>
					<g id="XMLID_235_" class="st61">
						<path id="XMLID_243_" class="st62" d="M228.2,303.6l-4.6-2.5c-1.4-0.8-2.2-1.7-2.2-2.9c0-0.3,0.1-0.7,0.2-1l4.6,2.5
							c-0.1,0.3-0.2,0.7-0.2,1C226,301.8,226.8,302.8,228.2,303.6"/>
						<path id="XMLID_242_" class="st63" d="M226.2,299.6l-4.6-2.5c0.1-0.2,0.1-0.3,0.2-0.5l4.6,2.5
							C226.3,299.3,226.3,299.5,226.2,299.6"/>
						<path id="XMLID_241_" class="st64" d="M226.4,299.1l-4.6-2.5c0.1-0.2,0.2-0.3,0.3-0.5l4.6,2.5
							C226.6,298.8,226.5,299,226.4,299.1"/>
						<path id="XMLID_240_" class="st65" d="M226.7,298.6l-4.6-2.5c0.1-0.2,0.3-0.4,0.5-0.6l4.6,2.5
							C227,298.2,226.9,298.4,226.7,298.6"/>
						<path id="XMLID_239_" class="st66" d="M227.2,298l-4.6-2.5c0.2-0.2,0.5-0.5,0.7-0.7l4.6,2.5
							C227.7,297.5,227.4,297.8,227.2,298"/>
						<path id="XMLID_238_" class="st60" d="M227.9,297.3l-4.6-2.5c0.4-0.4,0.9-0.7,1.4-1.1l4.6,2.5
							C228.8,296.6,228.3,296.9,227.9,297.3"/>
						<path id="XMLID_237_" class="st59" d="M229.3,296.2l-4.6-2.5c1-0.7,2.2-1.4,3.5-2l4.6,2.5
							C231.5,294.9,230.3,295.5,229.3,296.2"/>
						<path id="XMLID_236_" class="st58" d="M232.9,294.2l-4.6-2.5c1.1-0.5,2.3-1,3.6-1.5l4.6,2.5
							C235.2,293.2,234,293.7,232.9,294.2"/>
					</g>
				</g>
				<g id="XMLID_232_">
					<polygon id="XMLID_233_" class="st67" points="236.5,292.7 231.9,290.3 231.9,276.2 236.4,278.7 					"/>
				</g>
				<g id="XMLID_230_">
					<polygon id="XMLID_231_" class="st67" points="135,293.8 130.4,291.3 129.6,150.6 134.2,153.1 					"/>
				</g>
				<g id="XMLID_228_">
					<polygon id="XMLID_229_" class="st68" points="134.2,153.1 129.6,150.6 356.1,116.8 360.7,119.3 					"/>
				</g>
				<g id="XMLID_150_">
					<path id="XMLID_227_" class="st69" d="M360.7,119.3l0.8,140.7L260,275.1l0.1,14.1c6.3,0.4,10.5,2.1,10.6,4.8
						c0,4.1-9.9,9-22.3,10.8c-12.6,1.8-22.3-0.1-22.4-4.2c0-2.7,4.2-5.7,10.5-7.9l-0.1-14.1L135,293.8l-0.8-140.7L360.7,119.3z"/>
				</g>
			</g>
		</g>
	</g>
	<g id="XMLID_5_">
		<g id="XMLID_124_">
			<g id="XMLID_138_" class="st1">
				<g id="XMLID_164_">
					<polygon id="XMLID_165_" class="st70" points="143.2,284.2 141,283 140.3,157.1 142.5,158.3 					"/>
				</g>
				<g id="XMLID_162_">
					<polygon id="XMLID_163_" class="st71" points="142.5,158.3 140.3,157.1 351.6,125.6 353.9,126.8 					"/>
				</g>
				<g id="XMLID_140_">
					<polygon id="XMLID_161_" class="st72" points="353.9,126.8 354.6,252.7 143.2,284.2 142.5,158.3 					"/>
				</g>
			</g>
		</g>
	</g>
	<g id="XMLID_9_">
		<g id="XMLID_105_">
			<g id="XMLID_133_" class="st1">
				<g id="XMLID_154_">
					<polygon id="XMLID_155_" class="st73" points="373,312.5 373,316.6 300,359 300.1,354.9 					"/>
				</g>
				<g id="XMLID_152_">
					<polygon id="XMLID_153_" class="st74" points="300.1,354.9 300,359 256.5,333.9 256.5,329.8 					"/>
				</g>
				<g id="XMLID_136_">
					<polygon id="XMLID_151_" class="st75" points="373,312.5 300.1,354.9 256.5,329.8 329.5,287.4 					"/>
				</g>
			</g>
		</g>
	</g>
	<g id="XMLID_23_">
		<g id="XMLID_115_">
			<g id="XMLID_126_" class="st1">
				<g id="XMLID_146_">
					<polygon id="XMLID_147_" class="st76" points="367,310.7 367,314.8 305.3,350.7 305.3,346.6 					"/>
				</g>
				<g id="XMLID_144_">
					<polygon id="XMLID_145_" class="st77" points="305.3,346.6 305.3,350.7 267.5,328.8 267.5,324.7 					"/>
				</g>
				<g id="XMLID_134_">
					<polygon id="XMLID_143_" class="st78" points="367,310.7 305.3,346.6 267.5,324.7 329.2,288.9 					"/>
				</g>
			</g>
		</g>
	</g>
	<g id="XMLID_8_">
		<g id="XMLID_95_">
			<g id="XMLID_114_" class="st1">
				<g id="XMLID_196_" class="st1">
					<defs>
						<path id="XMLID_199_" class="st1" d="M275.4,339.6l0-1.6c0,0.3,0.2,0.7,0.7,0.9l0,1.6C275.6,340.2,275.4,339.9,275.4,339.6z"
							/>
					</defs>
					<clipPath id="XMLID_14_">
						<use xlink:href="#XMLID_199_"  style="overflow:visible;"/>
					</clipPath>
					<g id="XMLID_197_" class="st79">
						<path id="XMLID_198_" class="st50" d="M276,338.9l0,1.6c-0.5-0.3-0.7-0.6-0.7-0.9l0-1.6C275.4,338.3,275.6,338.6,276,338.9"/>
					</g>
				</g>
				<g id="XMLID_185_" class="st1">
					<defs>
						<path id="XMLID_195_" class="st1" d="M286,340.6l0,1.6c0,0.3-0.2,0.7-0.7,0.9l0-1.6C285.7,341.3,286,341,286,340.6z"/>
					</defs>
					<clipPath id="XMLID_19_">
						<use xlink:href="#XMLID_195_"  style="overflow:visible;"/>
					</clipPath>
					<g id="XMLID_186_" class="st80">
						<path id="XMLID_194_" class="st4" d="M286,340.6l0,1.6c0,0,0,0,0,0L286,340.6C286,340.6,286,340.6,286,340.6"/>
						<path id="XMLID_193_" class="st9" d="M286,340.7l0,1.6c0,0,0,0.1,0,0.1l0-1.6C285.9,340.7,286,340.7,286,340.7"/>
						<path id="XMLID_192_" class="st14" d="M285.9,340.8l0,1.6c0,0,0,0.1,0,0.1l0-1.6C285.9,340.9,285.9,340.8,285.9,340.8"/>
						<path id="XMLID_191_" class="st19" d="M285.9,340.9l0,1.6c0,0,0,0.1-0.1,0.1l0-1.6C285.9,341,285.9,341,285.9,340.9"/>
						<path id="XMLID_190_" class="st24" d="M285.8,341l0,1.6c0,0-0.1,0.1-0.1,0.1l0-1.6C285.8,341.1,285.8,341.1,285.8,341"/>
						<path id="XMLID_189_" class="st29" d="M285.8,341.2l0,1.6c0,0.1-0.1,0.1-0.1,0.2l0-1.6C285.7,341.3,285.7,341.2,285.8,341.2"
							/>
						<path id="XMLID_188_" class="st35" d="M285.6,341.3l0,1.6c-0.1,0.1-0.2,0.1-0.3,0.2l0-1.6
							C285.4,341.5,285.5,341.4,285.6,341.3"/>
						<path id="XMLID_187_" class="st81" d="M285.3,341.6l0,1.6c0,0,0,0,0,0L285.3,341.6C285.3,341.6,285.3,341.6,285.3,341.6"/>
					</g>
				</g>
				<g id="XMLID_183_">
					<polygon id="XMLID_184_" class="st82" points="285.3,341.6 285.3,343.2 284.6,343.6 284.6,342 					"/>
				</g>
				<g id="XMLID_181_">
					<polygon id="XMLID_182_" class="st46" points="281.4,342 281.4,343.6 276,340.5 276,338.9 					"/>
				</g>
				<g id="XMLID_167_" class="st1">
					<defs>
						<path id="XMLID_180_" class="st1" d="M284.6,342l0,1.6c-0.9,0.5-2.3,0.5-3.2,0l0-1.6C282.3,342.5,283.7,342.5,284.6,342z"/>
					</defs>
					<clipPath id="XMLID_20_">
						<use xlink:href="#XMLID_180_"  style="overflow:visible;"/>
					</clipPath>
					<g id="XMLID_168_" class="st83">
						<path id="XMLID_179_" class="st81" d="M284.6,342l0,1.6c-0.2,0.1-0.3,0.2-0.5,0.2l0-1.6C284.3,342.1,284.5,342,284.6,342"/>
						<path id="XMLID_178_" class="st35" d="M284.1,342.2l0,1.6c-0.1,0-0.3,0.1-0.4,0.1l0-1.6C283.8,342.3,284,342.2,284.1,342.2"/>
						<path id="XMLID_177_" class="st29" d="M283.7,342.3l0,1.6c-0.1,0-0.2,0-0.3,0l0-1.6C283.5,342.3,283.6,342.3,283.7,342.3"/>
						<path id="XMLID_176_" class="st24" d="M283.4,342.3l0,1.6c-0.1,0-0.2,0-0.3,0l0-1.6C283.2,342.3,283.3,342.3,283.4,342.3"/>
						<path id="XMLID_175_" class="st19" d="M283.1,342.3l0,1.6c-0.1,0-0.2,0-0.2,0l0-1.6C283,342.3,283.1,342.3,283.1,342.3"/>
						<path id="XMLID_174_" class="st14" d="M282.9,342.3l0,1.6c-0.1,0-0.2,0-0.2,0l0-1.6C282.8,342.3,282.8,342.3,282.9,342.3"/>
						<path id="XMLID_173_" class="st9" d="M282.7,342.3l0,1.6c-0.1,0-0.1,0-0.2,0l0-1.6C282.5,342.3,282.6,342.3,282.7,342.3"/>
						<path id="XMLID_172_" class="st4" d="M282.5,342.3l0,1.6c-0.1,0-0.2,0-0.2,0l0-1.6C282.3,342.3,282.4,342.3,282.5,342.3"/>
						<path id="XMLID_171_" class="st40" d="M282.2,342.3l0,1.6c-0.1,0-0.2,0-0.2-0.1l0-1.6C282.1,342.2,282.1,342.3,282.2,342.3"/>
						<path id="XMLID_170_" class="st45" d="M282,342.2l0,1.6c-0.1,0-0.2-0.1-0.3-0.1l0-1.6C281.8,342.2,281.9,342.2,282,342.2"/>
						<path id="XMLID_169_" class="st50" d="M281.7,342.1l0,1.6c-0.1,0-0.2-0.1-0.3-0.2l0-1.6C281.5,342,281.6,342.1,281.7,342.1"/>
					</g>
				</g>
				<g id="XMLID_116_">
					<path id="XMLID_166_" class="st56" d="M285.3,339.7c0.9,0.5,0.9,1.4,0,1.9l-0.7,0.4c-0.9,0.5-2.3,0.5-3.2,0l-5.3-3.1
						c-0.9-0.5-0.9-1.4,0-1.9l0.7-0.4c0.9-0.5,2.3-0.5,3.2,0L285.3,339.7z"/>
				</g>
			</g>
		</g>
	</g>
</g>
<g id="Desktop">
	<g id="XMLID_328_">
		<g id="XMLID_333_">
			<g id="XMLID_334_" class="st1">
				<g id="XMLID_339_">
					<polygon id="XMLID_340_" class="st53" points="211,265.6 206.4,263.1 206.3,244.7 210.9,247.2 					"/>
				</g>
				<g id="XMLID_337_">
					<polygon id="XMLID_338_" class="st36" points="210.9,247.2 206.3,244.7 346.2,223.8 350.7,226.3 					"/>
				</g>
				<g id="XMLID_335_">
					<polygon id="XMLID_336_" class="st84" points="350.7,226.3 350.8,244.7 211,265.6 210.9,247.2 					"/>
				</g>
			</g>
		</g>
	</g>
	<g id="XMLID_315_">
		<g id="XMLID_320_">
			<g id="XMLID_321_" class="st1">
				<g id="XMLID_326_">
					<polygon id="XMLID_327_" class="st53" points="156.5,274.7 151.9,272.2 151.8,253.8 156.4,256.2 					"/>
				</g>
				<g id="XMLID_324_">
					<polygon id="XMLID_325_" class="st36" points="156.4,256.2 151.8,253.8 197.8,246.9 202.4,249.4 					"/>
				</g>
				<g id="XMLID_322_">
					<polygon id="XMLID_323_" class="st84" points="202.4,249.4 202.5,267.8 156.5,274.7 156.4,256.2 					"/>
				</g>
			</g>
		</g>
	</g>
	<g id="XMLID_302_">
		<g id="XMLID_307_">
			<g id="XMLID_308_" class="st1">
				<g id="XMLID_313_">
					<polygon id="XMLID_314_" class="st53" points="155.1,249.5 150.6,247 150.2,181.4 154.8,183.9 					"/>
				</g>
				<g id="XMLID_311_">
					<polygon id="XMLID_312_" class="st36" points="154.8,183.9 150.2,181.4 345.8,152.3 350.3,154.8 					"/>
				</g>
				<g id="XMLID_309_">
					<polygon id="XMLID_310_" class="st84" points="350.3,154.8 350.7,220.3 155.1,249.5 154.8,183.9 					"/>
				</g>
			</g>
		</g>
	</g>
	<g id="XMLID_288_">
		<g id="XMLID_292_">
			<g id="XMLID_294_" class="st1">
				<g id="XMLID_300_">
					<polygon id="XMLID_301_" class="st53" points="186.6,172.2 182,169.7 182,161.5 186.5,164 					"/>
				</g>
				<g id="XMLID_298_">
					<polygon id="XMLID_299_" class="st36" points="186.5,164 182,161.5 344.1,137.3 348.7,139.8 					"/>
				</g>
				<g id="XMLID_296_">
					<polygon id="XMLID_297_" class="st84" points="348.7,139.8 348.7,148 186.6,172.2 186.5,164 					"/>
				</g>
			</g>
		</g>
	</g>
	<g id="XMLID_157_">
		<g id="XMLID_204_">
			<g id="XMLID_279_" class="st1">
				<g id="XMLID_286_">
					<polygon id="XMLID_287_" class="st53" points="154,177.1 149.4,174.6 149.3,166.4 153.9,168.9 					"/>
				</g>
				<g id="XMLID_283_">
					<polygon id="XMLID_284_" class="st36" points="153.9,168.9 149.3,166.4 176.2,162.4 180.7,164.9 					"/>
				</g>
				<g id="XMLID_281_">
					<polygon id="XMLID_282_" class="st84" points="180.7,164.9 180.8,173.1 154,177.1 153.9,168.9 					"/>
				</g>
			</g>
		</g>
	</g>
</g>
<g id="Layer_3">
	<g id="XMLID_13_">
		<g id="XMLID_35_">
			<g id="XMLID_54_" class="st1">
				<g id="XMLID_80_">
					<polygon id="XMLID_81_" class="st82" points="338.1,296.5 338.1,298.1 334.2,300.4 334.2,298.8 					"/>
				</g>
				<g id="XMLID_78_">
					<polygon id="XMLID_79_" class="st46" points="334.2,298.8 334.2,300.4 325.6,295.5 325.6,293.9 					"/>
				</g>
				<g id="XMLID_56_">
					<polygon id="XMLID_77_" class="st56" points="338.1,296.5 334.2,298.8 325.6,293.9 329.5,291.6 					"/>
				</g>
			</g>
		</g>
	</g>
	<g id="XMLID_18_">
		<g id="XMLID_31_">
			<g id="XMLID_44_" class="st1">
				<g id="XMLID_70_">
					<polygon id="XMLID_71_" class="st82" points="348.9,303 348.9,304.6 345,306.9 345.1,305.3 					"/>
				</g>
				<g id="XMLID_68_">
					<polygon id="XMLID_69_" class="st46" points="345.1,305.3 345,306.9 336.4,302 336.4,300.3 					"/>
				</g>
				<g id="XMLID_46_">
					<polygon id="XMLID_67_" class="st56" points="348.9,303 345.1,305.3 336.4,300.3 340.3,298.1 					"/>
				</g>
			</g>
		</g>
	</g>
	<g id="XMLID_16_">
		<g id="XMLID_27_">
			<g id="XMLID_34_" class="st1">
				<g id="XMLID_60_">
					<polygon id="XMLID_61_" class="st82" points="359.8,309.5 359.8,311.2 355.9,313.4 355.9,311.8 					"/>
				</g>
				<g id="XMLID_58_">
					<polygon id="XMLID_59_" class="st46" points="355.9,311.8 355.9,313.4 347.3,308.5 347.3,306.9 					"/>
				</g>
				<g id="XMLID_36_">
					<polygon id="XMLID_57_" class="st56" points="359.8,309.5 355.9,311.8 347.3,306.9 351.1,304.6 					"/>
				</g>
			</g>
		</g>
	</g>
	<g id="XMLID_17_">
		<g id="XMLID_24_">
			<g id="XMLID_30_" class="st1">
				<g id="XMLID_50_">
					<polygon id="XMLID_51_" class="st82" points="354.3,313.5 354.3,315.1 330.3,329.2 330.3,327.6 					"/>
				</g>
				<g id="XMLID_48_">
					<polygon id="XMLID_49_" class="st46" points="330.3,327.6 330.3,329.2 299.1,311.5 299.1,309.9 					"/>
				</g>
				<g id="XMLID_32_">
					<polygon id="XMLID_47_" class="st56" points="354.3,313.5 330.3,327.6 299.1,309.9 323.1,295.7 					"/>
				</g>
			</g>
		</g>
	</g>
	<g id="XMLID_15_">
		<g id="XMLID_21_">
			<g id="XMLID_26_" class="st1">
				<g id="XMLID_40_">
					<polygon id="XMLID_41_" class="st82" points="328.9,328.7 328.9,330.4 304.9,344.5 304.9,342.9 					"/>
				</g>
				<g id="XMLID_38_">
					<polygon id="XMLID_39_" class="st46" points="304.9,342.9 304.9,344.5 273.8,326.8 273.8,325.1 					"/>
				</g>
				<g id="XMLID_28_">
					<polygon id="XMLID_37_" class="st56" points="328.9,328.7 304.9,342.9 273.8,325.1 297.8,311 					"/>
				</g>
			</g>
		</g>
	</g>
</g>
</svg>
