<?xml version="1.0" encoding="utf-8"?>
<!-- Generator: Adobe Illustrator 19.0.0, SVG Export Plug-In . SVG Version: 6.00 Build 0)  -->
<svg version="1.1" id="Layer_1" xmlns="http://www.w3.org/2000/svg" xmlns:xlink="http://www.w3.org/1999/xlink" x="0px" y="0px"
	 viewBox="0 0 500 500" style="enable-background:new 0 0 500 500;" xml:space="preserve">
<style type="text/css">
	.st0{opacity:0.77;fill:#1C75BC;enable-background:new    ;}
	.st1{opacity:0.49;fill:#1C75BC;enable-background:new    ;}
	.st2{opacity:0.75;fill:#1C75BC;enable-background:new    ;}
	.st3{fill:#1C75BC;}
	.st4{opacity:0.46;fill:#1C75BC;enable-background:new    ;}
	.st5{fill:#FFFFFF;}
	.st6{fill:url(#XMLID_2_);}
</style>
<path id="XMLID_14_" class="st0" d="M258.5,258.4c-7.9,9-16.2,17.5-23,23.4V296h26.7v-31.9"/>
<path id="XMLID_6_" class="st1" d="M258.5,258.4c10.9-12.5,22.7-28,27.8-34.6l-24.1,40.5"/>
<path id="XMLID_7_" class="st1" d="M235.3,264.1l13.1-23.2l20.1-36.3h28.9l-11.6,19.2c-11.8,13.8-21.7,23.8-29.7,30.8
	c-8.7,7.7-15.5,12-20.8,14.4"/>
<path id="XMLID_10_" class="st2" d="M235.3,264.1l-35.7-59.5h28.9l20.1,36.3l7.7,13.8c-8.7,7.7-15.7,12-21,14.7"/>
<path id="U" class="st3" d="M301.6,287.5c0,2.8-0.7,5-2.2,6.6s-3.7,2.2-6.6,2.2s-5-0.9-6.6-2.2s-2.2-3.7-2.2-6.6v-14.9h5v14.4
	c0,1.5,0.2,2.8,0.9,3.5c0.7,0.9,1.5,1.1,2.8,1.1c1.3,0,2.2-0.4,2.8-1.1c0.7-0.7,0.9-2,0.9-3.7v-14.4h5L301.6,287.5z"/>
<path id="XMLID_3_" class="st4" d="M280,284.9c-0.7-1.1-1.7-1.7-3.3-2.4c-0.9-0.2-1.5-0.4-2.2-0.7c-0.7-0.2-1.3-0.2-2-0.4
	c-1.1-0.2-1.7-0.7-2.2-0.9c-0.4-0.2-0.7-0.9-0.7-1.3s0.2-0.9,0.4-1.1s0.4-0.7,0.9-0.7c0.4-0.2,0.9-0.2,1.1-0.4
	c0.4,0,0.9-0.2,1.3-0.2c1.1,0,2.4,0.2,3.5,0.7c1.1,0.4,2.2,1.1,2.8,1.7h0.4v-5.2c-0.9-0.4-2-0.9-3.3-1.1c-1.3-0.2-2.6-0.4-3.7-0.4
	c-2.6,0-4.6,0.7-6.3,2.2c-1.5,1.3-2.4,3.1-2.4,5.2c0,1.5,0.4,2.8,1.1,3.9s2,2,3.5,2.6c0.7,0.2,1.5,0.4,2.4,0.7
	c0.9,0.2,1.5,0.4,2.4,0.7c0.7,0.2,1.3,0.4,1.5,0.9c0.4,0.4,0.7,0.9,0.7,1.3c0,0.7-0.2,0.9-0.4,1.3s-0.7,0.4-0.9,0.7
	c-0.2,0.2-0.7,0.2-1.3,0.2c-0.4,0-0.9,0-1.3,0c-1.1,0-2.4-0.2-3.7-0.7c-1.3-0.4-2.4-1.3-3.5-2.2h-0.7v5.5c1.1,0.4,2.2,0.9,3.5,1.3
	c1.3,0.2,2.6,0.4,4.2,0.4c2.8,0,5-0.9,6.6-2.2c1.5-1.5,2.4-3.3,2.4-5.7C281.1,287.1,280.6,285.8,280,284.9z"/>
<polygon id="E" class="st5" points="247.6,296 247.6,272.8 262,272.8 262,277.4 252.6,277.4 252.6,281.4 261.2,281.4 261.2,285.8 
	252.6,285.8 252.6,291.4 262,291.4 262,296 "/>
<g id="Circle">
	
		<linearGradient id="XMLID_2_" gradientUnits="userSpaceOnUse" x1="159.3282" y1="250.45" x2="341.9781" y2="250.45" gradientTransform="matrix(1 0 0 -1 0 500)">
		<stop  offset="0" style="stop-color:#2484C6"/>
		<stop  offset="1" style="stop-color:#2484C6;stop-opacity:0"/>
	</linearGradient>
	<path id="XMLID_18_" class="st6" d="M339,250.5c0,0,0,2.2-0.2,6.1c0,1.1,0,2.2-0.2,3.3c-0.2,1.3-0.4,2.6-0.7,4.2
		c-0.2,1.5-0.4,3.1-0.9,4.6c-0.4,1.5-0.9,3.3-1.3,5.2c-2.2,7.2-5.2,16-11.2,24.9c-5.7,9-13.8,17.9-24.5,25.6
		c-10.7,7.4-24.3,12.9-39.4,14.9c-2,0.2-3.7,0.2-5.7,0.4l-2.8,0.2h-1.5c-0.7,0-1.1,0-1.5,0c-3.7-0.2-7.7-0.2-11.6-0.9
		c-8.1-0.9-15.7-3.3-23.4-6.6c-2-0.9-3.7-1.7-5.7-2.6c-2-0.9-3.7-2.2-5.5-3.1l-2.6-1.5l-2.6-2c-1.7-1.3-3.5-2.4-5-3.9
		c-6.6-5.5-12.2-12-17.3-19c-4.8-7.2-8.5-15.3-11.4-23.6l-1.7-6.3l-0.4-1.5l-0.2-1.7l-0.4-3.3c-0.4-2.2-0.7-4.4-0.9-6.6l-0.4-6.8
		c0-8.5,1.1-17.7,3.7-26.2c2.6-8.5,6.3-16.6,11.2-24.1c5-7.2,10.7-14,17.3-19.7c1.5-1.3,3.5-2.6,5-3.9l2.6-2l2.6-1.7
		c1.7-1.1,3.5-2.4,5.5-3.3c2-0.9,3.7-1.7,5.7-2.8c7.7-3.3,15.7-5.7,23.8-6.8c3.9-0.9,8.1-0.7,12-0.9h0.7h0.4h0.2h0.4h1.3l2.8,0.2
		c2,0.2,3.7,0.2,5.7,0.4c15.5,2,29.1,7.9,40,15.5c10.9,7.7,18.8,17.1,24.5,26.2c5.7,9,8.7,17.9,10.7,25.4c0.4,1.7,0.9,3.5,1.3,5.2
		c0.4,1.7,0.4,3.3,0.7,4.6c0.2,1.5,0.4,2.8,0.7,4.2c0.2,1.3,0.2,2.4,0.2,3.5C339,248.3,339,250.5,339,250.5L339,250.5z M338.4,250.5
		c0,0-0.2-2.2-0.4-6.1c0-1.1,0-2.2-0.2-3.3c-0.2-1.3-0.4-2.6-0.7-3.9c-0.2-1.5-0.4-3.1-0.9-4.6c-0.4-1.5-0.9-3.3-1.3-5
		c-0.2-0.9-0.4-1.7-0.9-2.8c-0.4-0.9-0.7-2-1.1-2.8c-0.9-2-1.5-3.9-2.4-5.9c-1.1-2-2.2-4.2-3.3-6.3c-1.3-2-2.6-4.2-4.2-6.3
		c-5.9-8.5-14.2-17.1-24.9-23.8c-1.3-0.9-2.8-1.5-4.2-2.4c-1.3-0.9-2.8-1.7-4.4-2.2c-3.1-1.3-5.9-2.8-9.2-3.7
		c-1.5-0.4-3.3-1.1-4.8-1.5c-1.7-0.4-3.3-0.9-5-1.1l-2.4-1.1c-0.9-0.2-1.7-0.2-2.6-0.4c-1.7-0.2-3.5-0.4-5.2-0.7
		c-1.7-0.2-3.7-0.2-5.5-0.2H252h-1.3h-1.3c-3.7,0.2-7.4,0.2-11.2,0.9c-7.4,0.9-14.9,3.3-21.9,6.3c-1.7,0.9-3.5,1.7-5.2,2.6
		c-1.7,0.9-3.5,2-5,3.1l-2.6,1.5l-2.4,1.7c-1.5,1.3-3.3,2.4-4.8,3.7c-6.1,5.2-11.6,11.2-16.4,17.9c-4.6,6.8-8.1,14.4-10.7,22.3
		c-2.4,8.1-3.5,16-3.9,24.9c0.2,8.1,1.1,16.6,3.5,24.7c2.4,7.9,5.9,15.7,10.5,22.5c4.6,6.8,10.1,13.1,16.2,18.4
		c1.5,1.3,3.3,2.4,4.8,3.7l2.4,1.7l2.6,1.5c1.7,1.1,3.3,2.2,5.2,3.1c1.7,0.9,3.5,1.7,5.2,2.6c7.2,3.1,14.9,5.7,22.3,6.6
		c3.7,0.9,7.7,0.9,11.4,1.1c0.4,0,1.1,0,1.3,0h1.3h2.8c1.7-0.2,3.7,0,5.5-0.2c14.4-1.5,27.8-6.6,38.5-13.6c10.7-7,19-15.7,24.9-24.5
		c1.3-2.2,2.8-4.4,3.9-6.6c1.1-2.2,2.2-4.4,3.1-6.3c0.9-2,1.5-4.2,2.4-6.1c0.4-0.9,0.7-2,1.1-2.8c0.2-0.9,0.4-2,0.7-2.8
		c0.4-1.7,0.9-3.5,1.3-5.2c0.4-1.5,0.4-3.3,0.7-4.6c0.2-1.5,0.4-2.8,0.7-3.9c0.2-1.3,0.2-2.4,0.2-3.3
		C338.4,252.7,338.4,250.5,338.4,250.5L338.4,250.5z"/>
</g>
</svg>
